<?xml version="1.0" standalone="no"?>
<!DOCTYPE svg PUBLIC "-//W3C//DTD SVG 20010904//EN"
 "http://www.w3.org/TR/2001/REC-SVG-20010904/DTD/svg10.dtd">
<svg version="1.0" xmlns="http://www.w3.org/2000/svg"
 width="3343.000000pt" height="2320.000000pt" viewBox="0 0 3343.000000 2320.000000"
 preserveAspectRatio="xMidYMid meet">

<g transform="translate(0.000000,2320.000000) scale(0.100000,-0.100000)"
fill="#3f3f3f" stroke="none">
<path d="M12660 16953 c-47 -8 -95 -26 -134 -50 -36 -23 -44 -24 -120 -17
-109 10 -117 9 -224 -43 -99 -48 -113 -63 -105 -106 3 -15 3 -27 1 -27 -31 0
-127 26 -151 41 -47 28 -39 30 -190 -48 -25 -14 -31 -13 -77 16 -28 17 -61 31
-74 31 -25 0 -431 -67 -453 -75 -7 -2 -13 -17 -13 -33 0 -27 -5 -31 -67 -52
-111 -38 -243 -115 -243 -144 0 -7 24 -22 54 -35 30 -12 59 -28 65 -35 18 -22
-11 -47 -69 -61 -30 -7 -91 -23 -135 -35 -44 -12 -116 -32 -160 -44 -93 -25
-105 -31 -105 -54 0 -21 45 -45 125 -67 33 -9 71 -20 85 -24 40 -11 30 -34
-19 -46 -25 -6 -46 -16 -48 -22 -2 -6 13 -22 34 -34 22 -12 52 -40 68 -62 l28
-39 51 8 c28 5 132 9 231 9 163 0 184 -2 225 -21 25 -12 57 -27 73 -33 15 -6
36 -25 46 -42 11 -17 30 -36 43 -43 12 -6 35 -35 49 -63 14 -28 48 -80 74
-115 72 -95 73 -101 39 -144 -49 -61 -49 -61 -34 -79 11 -14 24 -16 62 -11 40
6 51 3 68 -14 27 -27 22 -40 -20 -54 -25 -8 -36 -19 -42 -41 -13 -49 0 -94 33
-110 39 -21 56 -19 116 12 64 34 80 26 64 -34 -10 -38 -28 -54 -76 -67 -11 -3
-33 -30 -49 -62 -26 -50 -28 -59 -17 -89 9 -25 9 -39 0 -58 -16 -35 -6 -65 36
-112 21 -25 35 -50 35 -68 0 -44 24 -90 79 -151 28 -31 64 -85 80 -120 37 -81
63 -99 158 -107 68 -5 77 -9 113 -44 34 -33 42 -37 73 -31 44 8 63 30 88 101
14 41 18 69 14 97 -7 38 -5 41 49 92 49 46 56 56 56 91 0 23 10 55 25 81 21
36 36 47 99 73 41 17 85 31 98 31 13 0 54 13 91 28 51 22 86 47 146 105 43 43
81 77 84 77 20 0 314 64 344 74 39 14 99 47 186 101 42 27 47 34 47 66 0 28 5
38 20 42 24 6 26 36 5 76 -16 32 -86 91 -107 91 -19 0 -38 20 -38 42 0 23 26
23 71 0 20 -10 41 -16 47 -14 19 6 14 37 -8 57 -34 31 -24 42 45 50 36 3 68
12 72 18 5 7 8 30 8 52 0 31 4 40 17 40 27 0 31 11 17 50 -12 31 -11 40 2 64
12 21 14 40 9 75 -4 25 -9 48 -11 49 -2 2 -19 14 -36 26 -60 41 -34 71 61 71
30 0 57 4 61 9 3 5 -12 29 -33 54 -85 97 -80 157 19 266 55 59 60 69 54 98 -6
32 -5 33 29 33 22 0 51 11 82 33 27 18 69 38 94 46 91 27 113 36 124 54 15 24
-24 54 -83 63 -88 13 -405 -21 -473 -50 -19 -8 -21 -5 -32 46 -9 41 -32 48
-109 32 -57 -12 -76 -12 -120 -1 -40 10 -52 18 -52 33 0 17 10 19 125 25 167
8 240 35 199 74 -18 16 -135 63 -208 82 -177 46 -246 53 -494 52 -133 -1 -253
-4 -267 -6z m805 -1668 c43 -40 41 -65 -3 -65 -16 0 -44 -3 -61 -6 -28 -6 -31
-4 -31 19 0 13 7 30 15 37 8 7 12 16 9 21 -7 12 4 29 21 29 7 0 30 -16 50 -35z"/>
<path d="M10185 16879 c-27 -4 -86 -8 -130 -8 -88 -1 -149 -26 -171 -69 -17
-34 -18 -34 -73 -12 -68 26 -87 25 -129 -7 -36 -27 -171 -62 -239 -63 -83 0
-107 -41 -52 -88 73 -63 100 -94 97 -110 -3 -9 -11 -15 -19 -13 -8 2 -25 6
-39 9 -14 3 -36 16 -49 29 -51 50 -83 62 -145 56 -46 -5 -61 -11 -73 -29 -8
-13 -21 -24 -28 -24 -18 0 -95 -95 -95 -118 0 -36 84 -92 140 -92 34 0 49 -22
30 -45 -20 -24 -3 -61 37 -85 32 -19 57 -24 154 -28 l117 -5 17 27 c25 38 56
31 69 -13 7 -24 7 -36 -1 -38 -5 -2 -19 -10 -29 -17 -16 -12 -17 -17 -5 -40
11 -21 12 -28 1 -41 -7 -8 -19 -15 -27 -15 -8 0 -28 -7 -44 -16 -24 -12 -30
-21 -27 -42 3 -27 3 -27 103 -32 55 -4 106 -9 113 -14 7 -4 43 0 80 9 76 19
170 15 205 -10 37 -26 93 -19 159 21 32 20 57 41 55 48 -2 6 -23 13 -48 16
-56 6 -65 32 -17 46 20 6 41 22 53 41 11 18 34 37 50 44 49 18 96 43 106 55 6
8 4 23 -6 45 -13 26 -14 40 -6 62 10 25 15 27 68 27 32 1 69 7 83 15 14 8 42
14 62 15 33 0 42 5 67 43 48 69 71 86 151 111 42 14 101 38 131 55 45 25 54
34 54 58 0 40 9 50 55 57 22 3 64 17 94 31 30 14 59 25 64 25 13 0 23 27 16
44 -7 18 -102 44 -189 52 -38 3 -117 14 -175 23 -97 16 -238 18 -470 8 -25 -1
-56 1 -70 4 -14 3 -47 2 -75 -2z m-544 -389 c22 0 27 -38 7 -58 -20 -20 -37
-14 -53 18 -17 33 -12 55 12 46 8 -3 23 -6 34 -6z m99 -181 c0 -19 -28 -39
-54 -39 -24 0 -20 46 6 64 25 18 48 6 48 -25z"/>
<path d="M8513 16304 c-4 -10 2 -23 15 -33 11 -9 22 -27 24 -41 3 -22 7 -25
41 -23 25 2 56 -6 88 -23 57 -28 148 -49 162 -35 11 11 -27 87 -51 99 -9 5
-53 17 -97 26 -44 10 -97 24 -118 32 -48 18 -56 18 -64 -2z"/>
<path d="M8108 16255 c-28 -16 -36 -39 -18 -50 19 -12 10 -35 -21 -50 -64 -34
1 -75 96 -61 59 9 75 29 46 59 -27 30 -27 37 6 63 26 20 26 22 7 32 -37 20
-88 23 -116 7z"/>
<path d="M8930 16255 c-16 -20 -6 -56 26 -94 21 -25 33 -31 67 -31 36 0 44 -4
55 -27 6 -15 12 -35 12 -46 0 -11 -5 -17 -12 -14 -23 8 -48 -13 -48 -39 0 -20
9 -29 43 -44 23 -11 68 -23 100 -28 66 -10 93 -31 107 -80 17 -64 -26 -84 -72
-32 -32 36 -38 37 -108 2 -65 -32 -80 -67 -33 -77 15 -3 47 -11 71 -17 38 -10
45 -9 66 11 23 22 80 29 91 12 3 -6 36 -9 74 -9 60 1 72 -2 105 -27 37 -28 37
-28 139 -20 56 4 159 9 229 11 149 5 221 24 226 63 4 28 -21 57 -70 82 -47 24
-176 26 -238 4 -28 -10 -80 -15 -150 -15 -100 0 -109 2 -136 25 -16 14 -37 28
-46 31 -12 3 -18 16 -18 34 0 46 -40 70 -117 70 -79 0 -123 20 -123 55 0 18 5
25 19 25 11 0 23 5 27 11 11 18 -23 42 -68 48 -42 6 -43 7 -43 46 0 39 -1 40
-55 62 -64 26 -103 29 -120 8z"/>
<path d="M21230 16095 c-14 -8 -31 -14 -39 -15 -25 0 -83 -52 -97 -86 -13 -32
-17 -34 -62 -34 -35 0 -68 -10 -122 -36 -72 -36 -74 -36 -107 -20 -18 9 -45
16 -59 16 -41 0 -118 -22 -137 -39 -12 -9 -48 -18 -97 -22 -57 -5 -97 -15
-142 -37 -35 -17 -77 -33 -94 -37 -17 -3 -44 -19 -59 -35 -23 -24 -27 -35 -22
-64 4 -22 1 -38 -6 -43 -7 -4 -70 -8 -142 -9 -107 -1 -137 -5 -170 -21 -25
-12 -39 -25 -36 -34 8 -30 13 -119 7 -134 -5 -14 -9 -14 -38 1 -42 22 -135 14
-192 -17 -51 -26 -79 -21 -71 14 4 15 -1 32 -15 50 -25 32 -42 27 -40 -11 3
-48 1 -55 -42 -94 l-42 -38 21 -28 c45 -62 46 -69 18 -118 -32 -54 -28 -83 14
-114 25 -17 29 -25 24 -54 -3 -20 -1 -36 6 -40 18 -12 12 -53 -11 -81 -61 -73
-111 -106 -130 -87 -8 8 -5 21 15 50 33 50 57 108 57 137 0 12 -12 35 -27 51
-23 25 -27 41 -34 116 -4 48 -13 110 -20 137 -12 48 -11 53 9 81 23 30 30 94
12 105 -18 11 -120 35 -150 35 -34 0 -75 -44 -85 -92 -5 -20 -26 -49 -61 -81
-63 -57 -71 -78 -50 -137 8 -24 12 -56 9 -72 -5 -25 -2 -29 25 -34 38 -8 95
-65 90 -90 -5 -27 -46 -30 -71 -6 -29 27 -109 64 -182 86 -33 10 -75 25 -93
32 -18 8 -41 14 -52 14 -11 0 -40 5 -64 12 -36 9 -48 9 -60 -1 -23 -19 -20
-36 9 -49 32 -15 34 -55 3 -76 -29 -21 -48 -20 -78 4 -32 25 -44 25 -99 -2
-27 -13 -62 -21 -85 -20 -22 0 -59 -7 -82 -18 -23 -10 -45 -16 -48 -12 -4 3
-3 21 0 39 6 31 5 33 -23 33 -16 0 -54 -13 -84 -29 -30 -16 -83 -39 -119 -51
-104 -34 -133 -52 -152 -92 -14 -30 -25 -38 -54 -44 -43 -8 -80 7 -89 36 -8
25 8 48 38 52 29 4 33 32 8 57 -15 15 -34 21 -66 21 -24 0 -56 5 -70 12 -34
15 -42 3 -21 -32 12 -21 15 -40 10 -65 -4 -25 -2 -41 8 -53 23 -27 28 -49 14
-68 -12 -16 -18 -16 -53 -6 -58 17 -79 15 -127 -13 -63 -37 -81 -61 -81 -109
0 -35 -3 -41 -22 -44 -12 -2 -45 8 -74 22 -59 30 -81 32 -100 10 -11 -14 -10
-21 4 -46 25 -43 4 -62 -41 -39 -9 5 -29 14 -44 20 -27 10 -28 14 -28 79 0 63
-2 69 -30 94 -32 28 -35 35 -21 57 7 11 13 12 23 4 7 -6 38 -17 68 -26 30 -9
81 -24 114 -33 49 -15 63 -16 90 -5 17 7 41 15 54 18 37 9 82 57 82 90 0 45
-73 109 -185 161 -81 38 -102 45 -179 58 -52 8 -90 21 -110 36 -26 19 -42 23
-99 21 -64 -2 -69 0 -79 23 -11 23 -9 28 12 45 24 19 25 20 6 34 -11 8 -25 15
-31 15 -6 0 -39 11 -73 25 -48 20 -67 23 -87 15 -15 -6 -66 -10 -114 -10 l-88
0 -44 -45 c-42 -44 -46 -45 -105 -45 -33 0 -83 -7 -110 -17 -51 -17 -55 -20
-189 -128 -44 -36 -96 -78 -117 -93 -20 -15 -50 -47 -66 -72 -75 -111 -110
-158 -155 -203 -27 -26 -53 -60 -58 -75 -9 -26 -49 -56 -139 -105 -212 -116
-213 -118 -189 -306 14 -108 24 -135 61 -166 50 -42 126 -26 198 41 53 49 60
52 83 26 40 -44 126 -247 111 -261 -3 -3 -24 -10 -47 -16 -34 -8 -42 -14 -42
-33 0 -15 10 -29 27 -40 26 -15 28 -15 52 7 20 19 32 22 56 17 28 -5 36 -1 63
29 23 27 39 35 64 35 41 0 54 23 79 139 16 75 21 85 45 94 27 11 79 79 79 105
0 7 -19 35 -41 62 -39 47 -41 52 -37 100 5 52 42 111 83 134 33 18 68 45 113
88 39 36 43 44 38 73 -9 45 21 80 88 101 61 19 93 14 132 -19 33 -29 27 -59
-16 -77 -16 -7 -53 -34 -82 -61 -29 -26 -56 -48 -60 -49 -4 0 -24 -25 -44 -55
l-37 -55 18 -40 c13 -28 16 -52 12 -84 -6 -41 -4 -47 21 -65 15 -11 37 -30 48
-42 24 -23 26 -23 185 17 75 19 163 18 179 -1 10 -12 9 -20 -4 -40 -16 -24
-19 -25 -130 -23 -97 0 -120 -2 -148 -19 -44 -25 -46 -48 -9 -80 32 -29 38
-54 21 -97 -12 -33 -40 -33 -70 -1 -29 31 -51 32 -86 1 -26 -21 -28 -29 -28
-102 l-1 -79 -36 -17 c-19 -9 -41 -23 -48 -32 -17 -20 -50 -20 -75 -1 -30 22
-58 19 -154 -21 -123 -50 -118 -50 -162 -19 -35 24 -44 26 -66 17 -52 -24
-114 -8 -133 35 -19 42 -14 79 16 101 26 19 27 22 14 46 -12 22 -12 30 -1 51
10 19 11 28 2 37 -11 11 -20 9 -72 -20 -8 -5 -28 -15 -45 -23 -28 -14 -30 -19
-33 -76 -2 -42 2 -72 13 -92 18 -37 20 -95 2 -109 -7 -6 -22 -9 -33 -6 -10 2
-57 -8 -104 -23 l-85 -28 -26 -55 c-34 -70 -58 -93 -114 -108 -36 -10 -47 -18
-58 -45 -12 -27 -26 -37 -80 -59 -37 -14 -76 -23 -90 -21 -22 4 -26 1 -29 -23
-3 -28 -4 -29 -63 -29 -63 0 -105 -16 -105 -40 0 -30 13 -45 39 -45 46 0 123
-63 151 -122 15 -33 15 -47 5 -114 -7 -42 -19 -80 -26 -86 -17 -11 -313 0
-347 13 -43 17 -122 -43 -104 -78 5 -10 13 -48 16 -85 6 -55 4 -73 -13 -111
-26 -58 -27 -99 -1 -122 13 -12 20 -31 20 -57 l0 -38 69 0 c62 0 70 -2 85 -25
22 -34 20 -55 -11 -115 -19 -38 -37 -57 -67 -72 -42 -21 -106 -75 -106 -91 0
-4 -9 -27 -20 -51 -16 -36 -17 -50 -9 -80 13 -46 -3 -74 -60 -111 -22 -13 -42
-29 -45 -34 -4 -5 -20 -12 -36 -16 -35 -8 -90 -51 -90 -70 0 -8 -18 -29 -40
-46 -30 -25 -40 -39 -40 -62 0 -21 -10 -39 -34 -62 -37 -35 -66 -84 -66 -113
0 -10 -7 -27 -15 -38 -19 -25 -19 -74 1 -102 9 -13 22 -50 30 -82 12 -53 12
-65 -7 -135 -20 -76 -43 -125 -60 -125 -17 0 -9 -40 11 -60 13 -13 20 -33 20
-60 0 -61 21 -92 79 -120 28 -13 51 -27 51 -32 0 -5 20 -30 44 -56 25 -26 47
-61 51 -77 16 -73 48 -115 88 -115 7 0 24 -12 38 -26 13 -14 44 -38 69 -52 25
-14 56 -34 69 -44 30 -23 64 -23 154 1 98 26 121 28 200 12 82 -16 98 -14 212
35 71 30 106 39 166 42 l76 4 44 -62 43 -62 46 7 c25 3 59 8 77 12 26 4 37 0
59 -23 52 -57 54 -70 33 -174 -11 -52 -24 -99 -29 -104 -23 -23 -5 -57 89
-170 59 -72 104 -136 112 -160 7 -23 24 -61 37 -86 18 -36 22 -54 17 -90 -5
-34 -1 -56 14 -90 31 -69 27 -95 -27 -175 -56 -81 -68 -112 -78 -195 -7 -63 8
-119 46 -167 10 -13 28 -53 40 -89 13 -39 37 -83 61 -110 36 -42 45 -67 40
-117 -3 -25 38 -225 53 -261 7 -17 26 -46 42 -65 15 -19 37 -52 49 -75 11 -23
33 -60 49 -84 28 -41 29 -46 17 -79 -9 -25 -10 -41 -3 -57 6 -11 13 -33 16
-48 4 -18 21 -38 47 -55 40 -26 41 -26 72 -10 18 9 70 28 116 42 65 19 91 23
122 16 28 -6 57 -4 108 9 98 26 153 64 204 140 60 88 94 129 135 160 39 30 49
44 68 107 19 60 21 78 12 108 -14 43 -11 46 72 75 36 12 73 29 83 37 30 28 21
148 -20 241 -8 18 -11 38 -6 46 18 32 177 159 227 181 34 15 67 40 90 68 l36
44 0 129 c0 114 -3 133 -22 164 -65 107 -71 122 -65 172 5 41 2 55 -14 78 -23
31 -21 50 14 102 13 18 32 54 42 81 13 31 33 57 58 74 21 15 49 45 63 68 22
39 109 116 179 158 50 31 175 159 197 202 11 22 31 51 44 64 27 27 44 60 109
218 59 145 53 188 -23 149 -15 -8 -50 -17 -77 -21 -28 -4 -77 -15 -110 -25
-33 -10 -86 -21 -117 -25 -49 -5 -61 -3 -87 16 -17 13 -33 31 -36 40 -9 28 12
59 40 59 13 0 50 11 81 25 31 14 66 25 78 25 12 0 38 9 59 20 20 11 48 20 61
20 13 0 39 11 59 24 19 13 50 27 68 31 53 11 87 33 103 64 15 29 30 37 122 66
29 9 60 25 69 35 10 11 24 20 31 20 7 0 28 15 47 34 18 18 39 35 46 37 12 4
19 25 20 61 1 10 15 25 32 33 26 14 89 95 89 116 0 3 -15 26 -34 51 -29 38
-42 46 -77 51 -59 8 -81 34 -87 101 -4 55 -4 56 21 56 16 0 28 -7 32 -19 4
-14 19 -20 57 -25 28 -4 67 -14 87 -23 41 -17 212 -20 283 -3 102 23 141 12
173 -50 8 -16 37 -41 64 -55 50 -28 78 -63 68 -88 -7 -18 43 -74 78 -87 19 -7
36 -6 62 5 53 22 63 14 63 -47 1 -29 11 -102 23 -163 19 -89 30 -120 60 -164
21 -29 40 -65 43 -80 3 -14 16 -48 29 -76 14 -27 36 -87 51 -132 29 -92 55
-133 85 -133 22 0 89 65 89 86 0 8 13 26 29 40 33 29 43 85 42 224 -1 107 3
118 45 126 37 7 94 47 94 67 0 7 13 21 29 32 16 11 64 51 107 89 44 37 89 72
100 76 12 5 30 27 40 49 16 33 25 42 54 46 19 4 45 10 58 16 13 5 41 9 62 9
34 0 41 4 46 24 15 59 66 30 89 -51 12 -41 27 -67 56 -93 21 -19 39 -40 39
-45 0 -5 12 -26 27 -47 21 -32 26 -50 27 -106 l1 -67 37 -3 c27 -2 48 4 75 22
67 46 75 39 88 -69 4 -27 14 -64 24 -80 22 -38 33 -154 20 -220 -24 -130 -25
-121 12 -139 37 -17 87 -90 93 -134 6 -38 24 -90 53 -145 24 -46 25 -77 4 -77
-10 0 -69 52 -173 152 -41 40 -56 48 -102 53 -95 12 -97 -4 -14 -96 120 -135
156 -181 163 -206 3 -14 21 -44 39 -65 19 -21 48 -67 66 -101 51 -97 77 -126
143 -158 33 -16 70 -38 81 -48 12 -10 30 -21 41 -23 13 -2 21 -12 23 -28 5
-38 99 -80 183 -80 35 -1 82 -8 104 -16 22 -8 73 -17 114 -19 41 -2 87 -9 101
-15 15 -6 43 -10 61 -8 26 2 34 8 34 23 0 22 -48 43 -100 44 -19 1 -41 12 -62
33 -36 35 -65 39 -167 23 -36 -6 -57 -4 -80 7 -74 36 -109 48 -138 48 l-30 0
7 93 7 93 -40 27 c-22 14 -43 35 -47 47 -3 11 -20 27 -36 35 -23 12 -29 22
-29 48 -1 25 -8 36 -33 52 -18 11 -33 30 -35 43 -4 26 11 28 48 7 64 -36 78
-10 39 70 -21 44 -29 74 -29 114 0 51 -2 57 -45 98 -25 24 -54 43 -64 43 -25
0 -81 64 -81 93 0 28 -9 41 -37 56 -30 15 -29 45 3 128 31 78 48 97 75 83 10
-6 27 -10 38 -10 27 0 76 -43 91 -80 8 -19 22 -32 39 -36 50 -12 71 -32 71
-68 0 -18 6 -39 14 -45 14 -12 19 -9 171 112 l80 63 3 97 c2 74 -1 104 -14
129 -23 46 -44 68 -64 68 -20 0 -39 21 -66 70 -10 19 -31 52 -46 74 -16 21
-28 45 -28 52 0 20 68 93 112 120 44 28 70 30 102 9 43 -28 58 -95 22 -95 -23
0 -66 -48 -66 -74 0 -59 73 -56 121 6 28 34 30 42 20 64 -19 43 -14 73 15 84
14 6 37 10 52 10 33 0 88 19 122 42 14 9 54 24 89 33 46 12 80 29 125 65 96
76 120 103 181 205 31 52 60 95 64 95 10 0 31 61 31 91 0 14 -5 30 -12 37 -9
9 -8 21 2 51 11 35 11 44 -5 78 -10 21 -29 52 -42 69 -12 17 -23 36 -23 41 0
6 -16 30 -35 53 -28 34 -33 45 -25 61 6 10 14 19 18 19 4 0 26 18 49 39 25 23
56 41 78 45 52 10 42 33 -25 57 -53 19 -56 19 -80 1 -44 -32 -48 -33 -77 -10
-15 13 -37 28 -47 34 -56 30 -44 76 23 85 33 4 52 15 84 48 23 24 52 47 66 52
44 17 66 -7 37 -40 -7 -9 -16 -28 -20 -43 -9 -38 14 -37 92 3 55 29 63 30 97
19 l36 -12 -6 -64 c-6 -51 -4 -64 6 -65 58 -3 71 -6 78 -18 5 -7 7 -58 5 -112
-3 -90 -2 -98 16 -104 11 -3 34 1 52 9 18 8 50 21 70 30 38 15 42 23 51 96 6
53 -10 89 -69 152 -30 31 -54 61 -54 66 0 11 27 34 98 83 33 23 42 35 42 59 0
21 8 34 28 47 15 9 44 30 66 47 35 27 41 29 78 19 58 -16 104 2 163 63 140
145 186 197 201 227 9 17 32 53 50 78 45 62 55 90 65 187 5 45 16 96 24 112
16 31 43 40 49 18 2 -7 11 -39 20 -70 14 -49 15 -69 6 -140 -18 -132 -23 -205
-16 -223 6 -16 8 -16 32 0 24 16 27 16 45 -1 18 -16 19 -16 26 2 4 11 -3 35
-20 66 -31 55 -34 93 -11 126 14 20 22 22 54 17 50 -8 57 5 25 53 -40 60 -63
141 -71 243 -8 107 -17 139 -39 139 -10 0 -15 -10 -15 -29 0 -33 -22 -61 -48
-61 -9 0 -29 15 -44 34 -15 19 -43 39 -62 46 -29 9 -39 8 -68 -10 -48 -29 -71
-25 -102 15 -20 26 -35 35 -57 35 -45 0 -37 28 29 91 67 66 264 213 347 260
l59 33 135 -2 c109 -1 151 2 209 18 40 11 83 20 96 20 24 0 48 -22 59 -52 8
-23 42 -23 137 -2 62 14 71 19 66 35 -3 11 -8 27 -11 37 -4 11 15 38 59 84 68
70 65 68 192 83 55 7 66 0 78 -47 5 -21 12 -28 31 -28 29 0 133 79 153 116 22
41 84 60 95 30 17 -43 -32 -112 -107 -156 -30 -17 -67 -45 -82 -63 -15 -17
-50 -49 -78 -70 -28 -21 -67 -55 -86 -76 -25 -27 -46 -40 -76 -44 -34 -6 -44
-13 -65 -49 -53 -93 -65 -158 -45 -248 8 -36 19 -99 25 -141 13 -93 26 -129
47 -129 31 0 90 57 102 99 10 31 22 45 55 63 23 13 43 32 46 43 6 34 33 66 72
85 35 18 37 22 32 58 -5 39 4 54 50 77 15 7 24 24 29 55 10 56 3 79 -28 90
-32 12 -30 31 6 82 17 22 30 47 30 54 0 27 32 46 67 39 19 -3 49 -1 68 6 27
10 39 10 58 0 20 -10 32 -8 89 18 58 26 69 28 85 16 27 -21 64 -18 92 9 15 13
51 34 81 46 30 13 71 35 91 50 19 16 57 35 83 44 26 9 62 24 79 32 24 13 49
15 109 11 61 -4 82 -2 93 10 8 8 15 17 15 20 0 9 -72 116 -86 128 -7 6 -15 20
-18 31 -6 19 -1 23 31 29 21 5 101 7 177 6 115 -2 146 -6 177 -22 67 -34 108
-18 109 44 0 37 31 65 79 73 22 4 48 15 57 25 15 17 14 20 -17 49 -87 81 -92
83 -179 77 -75 -5 -80 -4 -95 19 -8 13 -20 24 -26 24 -6 0 -40 27 -76 59 -36
32 -77 65 -92 72 -14 8 -39 23 -56 35 -40 29 -122 64 -150 64 -12 0 -35 4 -51
9 -39 13 -335 34 -357 25 -15 -5 -17 -16 -15 -63 3 -56 3 -56 -27 -59 -24 -2
-38 5 -68 37 l-39 41 -86 0 c-48 -1 -158 1 -245 2 -144 3 -160 5 -173 22 -8
11 -14 31 -14 44 0 15 -14 38 -36 58 -32 31 -41 34 -98 34 -34 0 -88 -7 -119
-15 -32 -8 -82 -15 -111 -15 -58 0 -86 16 -199 113 -67 58 -87 63 -269 77 -73
5 -166 16 -206 25 -106 22 -174 20 -197 -5 -18 -20 -18 -22 -2 -49 9 -16 17
-39 17 -50 0 -19 -6 -21 -51 -21 -28 0 -60 -5 -71 -11 -16 -9 -33 -7 -73 6
-42 15 -58 16 -85 7 -47 -17 -80 -15 -123 8 -68 36 -87 25 -87 -51 0 -46 -11
-49 -69 -20 -41 22 -111 93 -111 115 0 7 7 19 15 26 33 27 2 87 -57 110 -18 7
-41 20 -51 29 -13 10 -47 16 -111 19 -99 5 -111 0 -142 -54 -10 -17 -23 -19
-108 -19 -97 0 -97 0 -124 32 -27 32 -29 32 -138 39 -79 5 -122 3 -149 -6 -37
-12 -40 -12 -61 16 -19 23 -30 28 -58 26 -20 -2 -61 5 -91 13 -58 17 -70 36
-37 62 25 20 110 59 162 74 52 15 60 23 60 65 0 39 -28 65 -103 98 -96 43
-177 59 -225 47 -23 -7 -44 -16 -47 -21 -11 -18 -35 -10 -45 14 -7 18 -18 26
-42 28 -26 2 -34 8 -36 26 -7 49 -99 78 -152 47z m-3980 -3031 c0 -16 -12 -37
-32 -56 -40 -37 -33 -51 41 -83 30 -12 74 -41 97 -63 23 -22 58 -52 78 -67 42
-32 46 -62 14 -90 -17 -15 -46 -21 -112 -27 -88 -7 -90 -7 -165 30 -66 31 -86
36 -151 37 -68 0 -80 -3 -128 -32 -92 -58 -205 -39 -247 39 -19 36 -19 38 -2
65 10 16 29 51 41 78 24 50 49 84 117 156 40 42 50 46 71 25 8 -7 28 -17 46
-21 39 -8 50 -24 29 -40 -22 -16 -21 -32 3 -47 11 -7 20 -18 20 -25 0 -29 36
-33 86 -8 27 13 61 28 77 34 35 14 35 31 -1 31 -16 0 -37 6 -47 14 -16 12 -18
18 -7 40 6 14 22 27 34 30 13 2 41 8 63 13 50 11 75 0 75 -33z m-1482 -79 c12
-14 31 -25 41 -25 19 0 51 -36 64 -72 6 -17 78 -68 95 -68 9 0 80 -36 119 -61
32 -20 44 -53 32 -88 -9 -26 -6 -34 28 -79 21 -28 47 -70 59 -94 12 -24 32
-65 45 -93 21 -43 28 -50 53 -50 25 0 31 5 38 32 5 18 20 40 33 49 31 21 31
36 0 70 -14 15 -25 32 -25 38 0 6 -3 21 -6 34 -6 22 -5 23 29 17 35 -7 36 -6
39 27 3 31 6 33 44 36 56 4 88 -22 87 -72 -1 -20 3 -39 8 -42 5 -3 9 -25 9
-48 0 -25 6 -48 14 -55 8 -7 22 -27 31 -46 14 -31 20 -35 54 -35 20 0 46 -7
57 -15 25 -19 45 -19 80 0 39 20 60 19 101 -6 32 -20 39 -21 82 -10 25 7 65
15 88 18 35 4 43 2 53 -18 20 -36 6 -120 -34 -200 -20 -40 -36 -80 -36 -89 0
-18 -35 -54 -63 -63 -10 -4 -35 0 -55 8 -20 9 -62 18 -93 22 -48 5 -65 2 -100
-16 -40 -21 -45 -22 -83 -7 -42 15 -79 24 -131 30 -42 6 -166 46 -190 62 -23
16 -118 19 -145 4 -27 -14 -44 -49 -42 -84 5 -60 -34 -71 -120 -31 -29 14 -67
25 -85 25 -33 0 -63 22 -63 46 0 21 -76 55 -139 61 -63 6 -80 14 -133 56 -44
35 -47 51 -16 84 19 21 20 26 9 61 -8 22 -10 48 -7 59 5 16 -1 23 -34 38 -37
17 -45 17 -78 5 -33 -13 -119 -19 -257 -19 -115 -1 -225 -21 -279 -51 -29 -17
-61 -30 -71 -30 -10 0 -27 -8 -37 -17 -14 -12 -35 -16 -81 -15 -86 3 -121 14
-125 39 -5 33 34 53 101 53 63 0 82 7 123 45 15 14 30 25 34 25 18 0 49 79 44
112 -5 29 0 42 34 85 29 36 50 52 74 57 49 10 68 29 82 83 11 43 16 49 51 61
30 10 50 10 89 1 50 -11 53 -10 126 30 86 47 138 53 170 21 11 -11 20 -33 20
-50 0 -20 8 -35 26 -47 15 -10 41 -32 60 -50 18 -17 53 -41 76 -53 78 -38 95
-50 133 -91 38 -42 40 -53 20 -116 -6 -19 -4 -23 13 -23 12 0 27 10 33 22 7
13 19 29 26 37 9 8 12 22 8 35 -17 55 -17 66 1 73 10 3 30 -1 46 -10 27 -15
29 -15 35 0 8 22 -52 73 -86 73 -27 0 -61 26 -61 46 0 7 -15 16 -32 19 -49 11
-83 40 -107 90 -12 26 -31 49 -45 55 -38 14 -50 75 -20 104 22 22 37 20 62 -9z
m2221 -1084 c8 -5 28 -35 45 -67 31 -59 45 -70 180 -144 l39 -22 52 20 c29 12
56 18 59 15 11 -11 6 -53 -6 -53 -6 0 -36 -27 -66 -60 l-54 -61 -77 3 -76 3 3
58 c3 50 1 57 -15 57 -11 0 -24 -5 -30 -11 -17 -17 -53 -1 -53 23 0 12 -20 44
-44 72 -39 46 -76 113 -76 137 0 31 83 53 119 30z m-922 -129 c19 -12 120
-161 142 -208 11 -23 32 -50 48 -59 41 -24 63 -68 63 -127 0 -53 -4 -46 89
-131 17 -16 31 -35 31 -44 0 -9 17 -41 39 -72 58 -86 73 -119 66 -150 -3 -14
1 -46 10 -70 22 -63 20 -81 -9 -81 -17 0 -38 15 -67 50 -23 27 -61 61 -85 75
-49 29 -81 70 -96 121 -5 20 -28 56 -50 80 -39 43 -41 48 -46 122 -5 86 -16
113 -61 156 -20 20 -31 39 -31 58 0 18 -14 47 -39 78 -49 61 -83 133 -79 162
2 12 14 28 28 35 29 15 31 15 47 5z"/>
<path d="M15465 12790 c-4 -6 -4 -35 -1 -64 6 -41 4 -55 -8 -66 -11 -9 -16
-30 -16 -71 0 -62 2 -65 55 -59 30 3 36 19 30 85 -3 33 -7 87 -8 120 -2 53 -5
60 -24 63 -11 2 -24 -2 -28 -8z"/>
<path d="M15700 12446 c0 -20 6 -27 28 -31 15 -3 44 -15 64 -25 38 -21 67 -26
69 -12 0 4 2 21 5 39 2 18 0 34 -4 36 -4 3 -42 8 -84 12 l-78 7 0 -26z"/>
<path d="M7785 16090 c-11 -5 -43 -9 -72 -9 -59 -1 -85 -16 -185 -104 -72 -64
-70 -77 11 -85 50 -4 138 18 171 44 8 6 33 14 54 17 21 4 50 16 63 29 20 18
23 30 21 68 -3 48 -20 59 -63 40z"/>
<path d="M18995 16000 c-33 -10 -80 -25 -105 -33 -25 -8 -85 -20 -135 -27 -80
-10 -178 -36 -223 -59 -92 -47 -144 -71 -156 -71 -21 0 -46 -34 -46 -63 0 -29
-16 -48 -72 -83 -29 -19 -38 -31 -38 -52 0 -21 -11 -39 -39 -64 -22 -19 -42
-48 -45 -65 -4 -18 -18 -39 -32 -47 -36 -24 -33 -71 6 -91 16 -8 37 -15 46
-15 10 0 29 -13 43 -30 25 -29 29 -30 117 -31 127 -2 142 13 63 61 -28 18 -43
36 -51 62 -14 47 -6 74 38 123 20 22 64 72 99 111 66 73 139 128 210 156 115
45 181 65 304 92 70 16 151 62 151 87 0 15 -47 59 -62 58 -7 0 -40 -9 -73 -19z"/>
<path d="M8242 15990 c-33 -14 -36 -32 -12 -83 36 -77 2 -89 -87 -31 -57 39
-163 73 -224 74 -28 0 -46 -9 -80 -39 -25 -21 -54 -55 -64 -76 -20 -36 -20
-37 -1 -50 15 -11 43 -13 129 -8 l110 6 -7 -29 c-19 -72 -1 -80 105 -44 33 12
95 25 137 31 42 5 108 14 145 18 80 11 107 30 107 76 0 44 -19 57 -77 54 l-48
-3 -25 47 c-35 66 -56 77 -108 57z"/>
<path d="M8800 15964 c-14 -7 -35 -14 -47 -14 -57 0 -89 -37 -77 -87 5 -19 13
-23 48 -23 45 0 66 -13 66 -42 0 -24 38 -38 100 -38 61 0 79 22 87 107 4 49 2
62 -17 86 -19 24 -28 27 -78 26 -31 -1 -68 -7 -82 -15z"/>
<path d="M7388 15691 c-26 -4 -50 -10 -53 -13 -4 -3 1 -21 10 -38 16 -31 16
-35 -3 -74 -31 -62 -72 -158 -72 -165 0 -4 27 -15 61 -25 42 -13 67 -27 82
-47 23 -32 42 -36 84 -15 15 8 40 19 55 25 17 6 36 27 49 53 22 45 49 72 111
113 83 55 92 14 13 -58 -30 -27 -55 -55 -55 -62 0 -7 11 -20 25 -29 19 -12 25
-25 25 -51 0 -37 17 -48 80 -49 28 -1 36 -5 38 -23 2 -14 -4 -26 -20 -34 -13
-6 -25 -13 -27 -15 -2 -2 8 -17 23 -34 53 -64 28 -81 -64 -45 -35 14 -72 25
-82 25 -9 0 -34 9 -55 19 -64 33 -116 36 -168 11 -54 -26 -77 -23 -85 10 -8
33 -43 38 -67 11 -9 -12 -22 -21 -27 -21 -5 0 -28 18 -52 40 -52 48 -90 53
-104 15 -11 -29 -31 -32 -65 -9 -29 19 -57 14 -128 -22 -28 -14 -66 -24 -90
-24 -52 0 -149 -30 -175 -53 -25 -23 -44 -21 -100 8 -28 14 -77 28 -123 33
-41 5 -91 18 -110 28 -26 13 -59 18 -134 19 -58 0 -109 6 -122 13 -12 7 -34
12 -50 12 -15 0 -50 7 -77 15 -30 9 -90 15 -152 15 -86 0 -105 3 -112 17 -8
13 -27 18 -78 21 -46 2 -86 12 -118 28 -54 26 -81 30 -91 14 -11 -18 -76 -40
-116 -40 -41 0 -201 -61 -233 -89 -10 -9 -24 -28 -32 -44 -8 -15 -34 -41 -57
-58 -35 -25 -47 -29 -80 -24 -27 5 -45 2 -62 -9 -35 -23 -31 -44 10 -62 19 -7
67 -43 106 -79 40 -36 78 -65 85 -65 18 0 35 -35 28 -54 -10 -25 -74 -21 -81
4 -3 11 -12 20 -21 20 -31 0 -212 -64 -216 -77 -3 -8 3 -22 14 -33 10 -10 26
-32 34 -49 9 -16 21 -33 28 -37 6 -4 60 -9 120 -10 88 -3 110 0 115 11 3 9 18
15 37 15 28 0 35 -5 50 -40 21 -49 16 -67 -21 -75 -15 -4 -40 -13 -55 -21 -14
-8 -44 -14 -65 -14 -47 0 -60 -9 -112 -80 -41 -54 -50 -83 -31 -95 5 -3 14
-23 20 -44 7 -26 23 -48 48 -67 31 -24 46 -29 97 -29 l60 0 -2 -47 c-3 -53 14
-66 61 -49 18 7 34 7 54 -1 15 -6 59 -12 97 -12 l70 -1 -2 -33 c-1 -39 -29
-72 -115 -138 -34 -26 -78 -49 -110 -57 -29 -8 -69 -25 -88 -38 -20 -13 -55
-33 -78 -43 -27 -12 -42 -25 -42 -38 0 -27 11 -25 125 21 11 5 45 18 75 31 30
12 73 27 95 33 22 5 56 22 75 37 19 14 53 37 75 50 22 13 51 36 65 51 14 14
50 39 80 54 68 35 89 60 90 109 0 22 7 46 15 55 8 9 24 26 35 39 22 24 44 25
47 1 8 -62 16 -89 25 -89 6 0 40 14 75 30 34 17 69 30 76 30 24 0 56 31 59 58
2 22 8 28 36 30 32 3 146 -30 169 -50 7 -6 44 -10 81 -9 84 1 164 -24 231 -73
80 -59 139 -83 217 -88 85 -6 124 -23 143 -63 8 -17 28 -46 46 -66 18 -20 35
-52 39 -72 5 -26 16 -41 41 -56 19 -11 45 -37 58 -58 14 -21 36 -48 51 -60 14
-13 26 -33 26 -46 0 -29 18 -54 50 -70 18 -9 29 -27 38 -62 21 -76 20 -90 -5
-93 -43 -6 -16 -53 38 -65 14 -4 45 -22 70 -40 24 -19 54 -37 67 -41 12 -4 22
-13 22 -20 0 -7 10 -44 22 -82 20 -64 21 -75 10 -184 -14 -138 -11 -352 6
-373 6 -7 19 -34 27 -58 9 -24 29 -57 45 -74 15 -16 34 -49 41 -73 7 -24 29
-62 48 -85 20 -23 43 -54 51 -70 8 -16 25 -30 39 -33 40 -8 72 -23 123 -57 39
-25 51 -40 69 -86 42 -115 72 -167 120 -212 34 -32 47 -51 43 -63 -3 -9 -12
-16 -19 -16 -23 0 -24 -27 -2 -48 12 -11 45 -31 73 -45 51 -26 64 -44 64 -94
0 -14 10 -28 28 -37 15 -8 47 -35 71 -61 45 -49 74 -55 79 -19 2 15 -8 31 -31
50 -18 16 -48 60 -66 97 -18 37 -48 84 -67 104 -19 20 -42 51 -50 70 -9 18
-33 52 -53 75 -48 55 -61 79 -61 117 0 28 3 31 29 31 31 0 64 -32 77 -73 13
-42 98 -158 126 -173 15 -8 28 -19 28 -24 0 -5 16 -25 35 -44 19 -20 35 -41
35 -48 0 -6 43 -54 95 -104 101 -99 161 -188 145 -214 -22 -35 -10 -65 52
-128 33 -34 68 -62 77 -62 36 0 91 -22 126 -50 21 -17 50 -33 64 -36 14 -3 56
-19 94 -36 70 -31 97 -32 210 -12 32 5 47 1 107 -35 38 -23 72 -46 75 -51 12
-19 149 -71 225 -85 58 -11 70 -16 70 -29 0 -7 20 -33 44 -58 29 -29 47 -57
51 -80 5 -29 14 -39 38 -48 62 -23 78 -34 98 -67 18 -28 26 -33 59 -33 21 0
43 -6 50 -15 7 -8 17 -15 23 -15 6 0 18 -7 28 -16 24 -22 49 -11 49 21 0 29
32 65 58 65 19 0 52 -29 52 -45 0 -5 11 -25 25 -46 21 -30 27 -51 30 -115 2
-44 4 -83 5 -89 6 -28 -3 -47 -32 -65 -17 -10 -37 -33 -44 -49 -8 -18 -27 -38
-47 -47 -47 -22 -100 -132 -89 -184 5 -22 16 -39 30 -45 34 -15 26 -38 -24
-75 -43 -31 -46 -35 -40 -69 3 -20 6 -46 6 -58 0 -15 12 -31 35 -45 62 -40
225 -287 225 -341 0 -9 11 -42 25 -73 14 -31 25 -67 25 -80 0 -27 29 -57 79
-80 159 -73 222 -107 249 -132 l32 -30 0 -125 c0 -86 -5 -138 -15 -167 -9 -26
-18 -100 -22 -179 -4 -88 -11 -143 -20 -157 -9 -14 -14 -65 -17 -160 -3 -127
-6 -144 -31 -197 -15 -34 -31 -91 -37 -135 -6 -43 -19 -91 -30 -110 -17 -27
-19 -43 -13 -87 5 -47 3 -60 -20 -99 -35 -60 -62 -200 -44 -232 15 -30 40 -31
57 -3 8 13 21 19 35 17 18 -2 21 -8 19 -33 -7 -59 -24 -80 -65 -80 -43 0 -51
-9 -62 -69 -3 -22 -13 -49 -21 -60 -20 -30 -18 -64 6 -71 27 -9 25 -31 -7 -69
-62 -74 -77 -149 -43 -225 11 -24 20 -58 20 -75 0 -24 9 -40 35 -63 23 -21 35
-40 35 -58 0 -56 133 -163 224 -180 21 -3 50 -14 63 -23 36 -23 121 -22 138 1
11 15 21 17 62 11 39 -5 52 -3 63 11 13 15 12 19 -9 36 -13 11 -35 22 -50 25
-67 16 -148 117 -135 168 3 15 2 32 -4 39 -6 7 -14 35 -17 63 -7 48 -6 51 27
76 19 14 42 44 52 65 10 23 33 49 55 63 25 15 42 35 49 56 11 37 4 48 -40 59
-36 9 -51 29 -51 67 0 37 41 78 77 78 30 0 44 18 52 61 3 19 7 43 9 55 3 12
23 33 45 48 39 25 53 55 28 57 -7 1 -22 2 -33 3 -10 0 -26 13 -34 28 -14 25
-14 29 0 44 15 14 22 14 51 4 31 -11 40 -10 74 6 38 19 39 20 42 79 2 33 9 63
15 68 7 4 31 5 54 2 33 -5 56 0 100 19 32 13 68 27 80 31 28 8 83 82 83 111 0
12 -7 27 -15 34 -8 7 -15 22 -15 34 0 12 -9 29 -20 39 -12 10 -18 22 -15 27 8
13 52 13 60 0 3 -6 33 -10 66 -10 90 0 128 24 179 112 28 47 64 91 102 123 36
30 69 70 84 100 14 28 31 57 39 65 29 34 45 82 45 138 l0 59 69 66 c60 59 74
67 108 67 22 0 54 11 78 25 22 14 56 25 75 26 19 0 43 3 52 7 29 12 76 81 83
121 4 24 18 50 35 68 16 15 30 37 30 48 1 11 8 38 16 60 14 36 31 151 38 263
2 27 11 50 25 65 21 22 119 143 174 216 17 23 31 59 38 97 9 54 8 65 -12 112
-21 48 -27 53 -76 69 -30 9 -72 34 -100 58 -66 57 -83 65 -161 71 -37 3 -84
13 -104 21 -24 10 -51 14 -74 10 -33 -6 -40 -2 -74 33 -21 22 -64 51 -96 65
-50 22 -62 24 -91 14 -29 -9 -37 -8 -54 7 -11 10 -28 19 -37 19 -60 4 -62 5
-62 29 0 13 7 29 15 36 21 17 19 27 -10 62 -14 16 -25 38 -25 49 0 11 -4 28
-9 37 -11 19 -97 112 -123 131 -27 20 -138 39 -198 34 l-55 -5 -55 53 c-62 60
-139 119 -156 119 -22 0 -37 32 -36 75 2 50 -11 64 -38 40 -16 -14 -24 -15
-51 -6 -48 16 -84 13 -130 -11 l-42 -22 -39 23 c-30 17 -48 21 -76 16 -32 -5
-42 -2 -71 25 -19 16 -42 30 -52 30 -9 0 -22 7 -29 15 -18 21 -29 19 -40 -9
-11 -30 -48 -52 -62 -38 -6 6 -6 17 1 30 28 53 -4 80 -47 40 -37 -35 -62 -47
-124 -58 -61 -12 -85 -31 -94 -75 -7 -37 -51 -75 -86 -75 -13 0 -41 12 -63 25
-46 29 -79 31 -123 9 -17 -8 -46 -18 -65 -21 -30 -4 -38 0 -87 51 -73 76 -74
78 -57 139 9 28 18 79 22 112 6 57 5 61 -22 87 -45 43 -76 50 -157 38 -41 -6
-84 -7 -101 -2 -32 9 -31 5 -21 105 2 21 11 46 19 55 8 9 17 37 21 61 4 24 13
56 21 72 29 54 23 59 -66 59 -81 0 -82 0 -115 -36 -19 -19 -34 -45 -34 -56 0
-11 -9 -33 -20 -48 -17 -24 -30 -30 -78 -35 -31 -3 -65 -10 -74 -15 -49 -27
-134 10 -176 78 -86 136 -108 242 -68 327 14 28 19 59 18 101 -2 71 23 119 73
143 17 7 42 24 56 37 14 14 40 29 58 34 42 12 168 1 182 -16 7 -8 31 -14 60
-14 48 0 49 1 49 30 0 40 23 50 112 50 59 0 81 -5 116 -25 35 -20 48 -23 64
-14 49 26 108 -30 108 -103 0 -63 85 -198 124 -198 18 0 26 10 40 56 20 63 23
50 -42 194 -50 111 -33 228 39 268 17 9 47 27 65 39 19 13 47 26 62 29 32 8
79 39 109 74 25 28 31 106 12 142 -9 17 -8 24 6 34 10 7 23 15 29 17 6 2 11
23 11 48 0 35 4 46 22 54 12 5 34 28 48 51 22 35 33 43 67 48 24 4 52 17 66
31 21 21 46 30 111 38 22 3 25 26 4 34 -25 9 -33 23 -33 59 0 42 30 65 116 93
46 14 82 33 100 52 18 19 38 29 56 29 31 0 36 -16 13 -46 -20 -27 -18 -61 4
-74 30 -16 44 -12 79 20 42 38 55 45 120 60 41 10 122 53 161 87 3 2 -3 20
-13 41 l-18 37 -32 -38 c-35 -42 -54 -46 -79 -17 -9 11 -26 20 -37 20 -11 0
-29 8 -40 18 -11 9 -33 19 -48 22 -24 5 -27 10 -30 54 -2 35 2 53 15 68 17 19
17 21 -11 45 -22 19 -38 24 -63 21 -49 -6 -63 23 -27 51 37 29 114 30 121 1 7
-26 59 -57 103 -61 27 -3 34 0 31 11 -10 41 -7 44 59 53 66 8 105 26 128 58
13 19 67 49 89 49 34 0 -15 -129 -74 -191 -20 -21 -24 -35 -21 -70 l3 -44 87
3 c84 4 88 3 113 -24 24 -26 26 -26 44 -10 23 21 57 14 66 -15 4 -13 15 -19
36 -19 55 0 64 89 14 149 -14 16 -25 36 -25 45 0 26 -37 40 -72 25 -27 -11
-32 -10 -44 6 -8 10 -14 24 -14 31 0 6 -7 14 -15 18 -21 8 -19 40 5 61 17 15
19 27 14 99 -7 113 -10 122 -43 135 -16 7 -39 29 -52 48 -20 29 -36 40 -87 55
-61 18 -159 71 -174 92 -4 6 -4 29 -1 52 5 37 1 47 -35 95 -22 30 -61 92 -88
138 -26 46 -54 86 -62 89 -16 6 -54 -37 -78 -88 -17 -38 -71 -80 -103 -80 -11
0 -27 8 -37 18 -10 9 -29 22 -43 28 -24 10 -27 17 -36 100 l-10 89 -44 3 c-38
3 -53 12 -108 62 -73 66 -99 76 -147 56 -30 -13 -41 -13 -82 0 -65 19 -123 18
-131 -2 -3 -9 -1 -39 6 -68 7 -28 15 -85 18 -126 5 -74 5 -76 -21 -93 -14 -10
-26 -22 -26 -27 0 -5 16 -24 36 -42 61 -55 91 -147 64 -198 -10 -18 -103 -90
-118 -90 -4 0 -20 -10 -35 -23 l-28 -22 30 -65 c36 -76 38 -97 11 -149 -32
-63 -64 -62 -112 1 -44 58 -57 93 -64 174 -4 43 -12 82 -18 86 -6 4 -41 8 -77
8 -49 0 -77 6 -113 24 -26 13 -63 27 -81 30 -18 4 -39 14 -46 23 -8 9 -39 34
-69 57 -54 40 -56 41 -140 41 l-84 0 -27 70 c-25 64 -30 70 -58 73 -66 7 -76
70 -25 167 68 130 119 190 177 209 10 3 26 26 37 50 16 37 25 46 57 55 21 6
42 11 46 11 4 0 36 29 70 65 34 36 68 65 75 65 21 0 15 -93 -9 -124 -26 -34
-21 -60 13 -64 18 -2 28 -11 32 -28 10 -40 52 -26 123 40 30 27 35 28 60 17
69 -32 111 -41 137 -31 32 12 34 38 2 49 -13 5 -32 21 -43 36 -13 18 -36 31
-72 41 -30 7 -68 25 -87 39 -18 14 -39 25 -47 25 -8 0 -20 7 -27 15 -7 8 -19
15 -26 15 -18 0 -18 44 -1 59 10 8 22 7 46 -2 29 -11 38 -8 109 28 95 50 114
77 89 129 -16 35 -16 37 5 77 21 40 21 42 3 75 -25 46 -15 64 36 64 23 0 58 5
78 11 31 9 44 7 91 -14 63 -28 77 -41 82 -77 2 -20 10 -26 45 -32 22 -3 59
-16 81 -27 67 -34 136 -130 104 -143 -19 -7 -82 -109 -82 -132 0 -48 -24 -58
-126 -54 -79 2 -95 0 -113 -16 -32 -29 -27 -61 15 -85 47 -28 100 -27 159 4
l49 24 22 -20 c12 -11 41 -31 65 -44 28 -14 45 -31 47 -45 3 -15 18 -28 50
-42 26 -10 56 -23 67 -28 100 -45 180 -70 223 -70 42 0 40 13 -8 47 -26 18
-40 36 -40 51 0 28 9 28 75 -4 72 -34 95 -23 95 43 0 50 2 47 -145 177 -55 49
-65 72 -43 94 18 18 66 15 83 -5 119 -141 121 -141 219 -49 53 49 67 69 64 87
-2 19 -11 25 -48 32 -45 9 -80 31 -80 51 -1 6 -11 23 -23 38 -19 23 -37 31
-109 44 -48 9 -94 21 -104 28 -22 17 -11 50 21 64 64 29 -13 121 -140 169 -60
22 -81 35 -97 61 -29 48 -52 56 -105 41 l-45 -12 -32 36 c-33 38 -72 60 -124
72 -31 6 -61 40 -47 53 3 4 16 7 28 7 15 0 22 6 22 20 0 14 -18 29 -65 52 -80
41 -170 46 -213 13 -25 -20 -28 -20 -52 -4 -19 13 -38 15 -76 11 -61 -7 -98
-28 -127 -73 -12 -19 -29 -34 -38 -34 -19 0 -45 60 -37 89 6 23 5 23 -63 16
-79 -9 -113 -23 -144 -62 -20 -25 -22 -36 -17 -113 4 -71 8 -87 26 -99 12 -7
21 -24 21 -37 0 -21 5 -24 41 -24 36 0 180 -50 203 -71 6 -5 1 -18 -13 -33
-15 -16 -24 -41 -28 -82 -4 -40 -15 -71 -35 -101 -37 -55 -43 -58 -73 -36 -20
15 -24 27 -25 65 0 39 -5 50 -31 72 -36 30 -42 31 -73 11 -28 -19 -54 -11 -58
18 -2 14 -17 29 -41 41 -34 16 -37 21 -32 47 6 25 1 36 -29 69 -19 21 -42 53
-51 69 -8 17 -20 31 -25 31 -5 0 -17 11 -25 24 -15 23 -15 26 12 64 15 22 44
48 63 57 19 9 59 37 88 64 l54 47 -29 19 c-43 29 -202 27 -260 -3 -44 -23 -55
-43 -55 -101 0 -56 -28 -66 -72 -26 -27 25 -27 27 -11 51 30 46 15 57 -69 49
-50 -5 -76 -4 -80 4 -12 19 -51 12 -75 -13 -22 -23 -22 -25 -6 -56 21 -40 9
-56 -29 -39 -53 24 -62 -28 -10 -56 35 -19 79 -49 111 -77 48 -40 97 -46 150
-18 49 26 67 51 58 80 -10 32 33 37 63 6 l26 -25 -21 -23 c-37 -41 -63 -101
-63 -148 0 -63 -9 -73 -49 -59 -28 10 -36 9 -60 -8 -14 -11 -36 -23 -49 -27
-27 -9 -29 -42 -3 -56 11 -5 47 -10 80 -10 33 0 63 -4 66 -10 10 -16 55 -11
62 7 4 9 -1 29 -9 44 -29 50 11 54 67 6 42 -36 48 -70 21 -112 -26 -39 -61
-42 -121 -11 -57 30 -103 32 -116 4 -5 -10 -13 -26 -18 -35 -6 -14 -27 -20
-97 -26 -80 -7 -92 -6 -127 13 -27 16 -46 20 -68 15 -26 -6 -36 -2 -62 23 -37
35 -82 55 -107 47 -23 -7 -43 19 -35 45 5 16 15 20 48 20 54 0 128 -23 166
-51 41 -30 63 -20 59 28 -2 31 1 38 17 41 62 10 97 41 75 67 -5 7 -43 22 -83
34 -104 31 -135 52 -142 98 -3 21 -11 56 -16 78 -22 82 -22 99 0 119 45 41 13
80 -62 74 -33 -2 -43 -7 -46 -23 -5 -27 -18 -34 -55 -28 -19 2 -39 -1 -51 -10
-18 -14 -18 -18 -5 -41 10 -19 11 -29 3 -37 -8 -8 -22 -2 -49 25 -20 20 -40
36 -43 36 -3 0 -19 -11 -35 -25 -35 -30 -31 -30 -73 -4 -29 18 -43 20 -98 14
-51 -5 -65 -4 -65 7 0 28 -19 42 -54 40 -26 -2 -36 1 -36 12 0 8 -21 32 -46
52 -44 37 -50 38 -143 45 -53 3 -109 11 -124 18 -30 12 -101 13 -179 2z m2727
-184 c29 -3 25 -39 -5 -54 -37 -19 -70 -16 -70 5 0 9 -3 28 -7 41 -6 23 -4 24
28 17 19 -4 43 -8 54 -9z m-2107 -437 l57 -39 143 35 c79 19 148 32 153 29 18
-11 9 -44 -13 -51 -32 -9 -37 -22 -25 -54 14 -37 3 -60 -28 -60 -14 0 -25 4
-25 8 0 16 -56 41 -70 32 -20 -13 -237 -13 -245 0 -3 5 1 20 9 32 15 21 14 24
-14 49 -19 18 -28 34 -24 43 9 23 19 20 82 -24z m-566 -1803 c9 -7 20 -25 23
-40 6 -24 4 -27 -19 -27 -18 0 -30 8 -41 30 -8 16 -15 34 -15 40 0 14 31 12
52 -3z"/>
<path d="M10256 14985 c-44 -40 -33 -95 19 -95 66 0 109 65 67 103 -26 24 -55
21 -86 -8z"/>
<path d="M13911 14815 c-29 -22 -40 -24 -91 -18 -49 5 -63 2 -88 -16 -38 -27
-48 -26 -88 4 -45 34 -133 36 -164 3 -27 -29 -25 -44 6 -72 24 -20 25 -25 14
-45 -13 -24 -2 -40 27 -41 7 0 19 -13 27 -29 17 -32 23 -34 152 -52 l91 -12
119 39 c94 31 126 46 152 73 17 19 32 38 32 42 0 5 -11 19 -25 31 -17 15 -25
32 -25 54 0 37 -15 49 -70 58 -27 4 -43 -1 -69 -19z"/>
<path d="M9853 14460 c-35 -21 -41 -41 -20 -59 20 -16 102 27 102 54 0 28 -42
31 -82 5z"/>
<path d="M10054 14405 c-9 -23 4 -47 23 -43 11 2 19 14 21 31 3 22 -1 27 -18
27 -11 0 -23 -7 -26 -15z"/>
<path d="M14643 14073 c-28 -5 -59 -56 -68 -111 -9 -57 13 -140 42 -159 13 -9
23 -25 23 -38 0 -26 25 -50 63 -59 30 -7 51 -43 35 -63 -5 -6 -24 -13 -41 -15
-30 -3 -32 -6 -35 -47 -2 -24 -10 -50 -18 -58 -20 -20 -18 -40 6 -53 28 -15
25 -26 -15 -61 -19 -17 -35 -37 -35 -45 0 -15 35 -19 44 -5 3 5 26 12 51 15
24 4 47 11 49 15 3 5 43 11 88 15 173 15 188 20 188 68 0 17 7 40 17 50 22 24
4 59 -43 81 -21 10 -41 32 -55 59 -22 43 -66 100 -126 163 -39 40 -39 43 -13
92 36 67 19 102 -39 82 -39 -14 -48 -7 -33 26 21 45 16 55 -25 54 -21 -1 -48
-4 -60 -6z"/>
<path d="M5564 14000 c-43 -20 -57 -40 -48 -65 9 -23 52 -30 73 -11 10 9 22
16 28 16 15 0 43 34 43 52 0 32 -38 35 -96 8z"/>
<path d="M14440 13759 c-19 -10 -48 -31 -63 -45 -27 -26 -28 -29 -21 -94 4
-42 2 -75 -5 -87 -25 -48 56 -55 137 -14 60 30 73 52 83 137 9 72 9 78 -12
100 -28 29 -70 30 -119 3z"/>
<path d="M6820 13680 c-13 -8 -13 -14 4 -44 20 -37 83 -106 98 -106 14 0 9 27
-8 41 -11 9 -15 26 -12 63 l3 51 -35 3 c-19 1 -42 -2 -50 -8z"/>
<path d="M23575 12976 c-9 -13 -19 -43 -23 -67 -6 -37 -12 -45 -32 -47 -14 -2
-31 -9 -37 -14 -16 -13 -17 -91 -1 -135 10 -28 10 -38 -2 -56 -7 -12 -15 -48
-17 -79 -5 -100 -63 -167 -151 -178 -41 -5 -48 -9 -70 -50 -14 -25 -26 -47
-28 -49 -3 -3 -26 -4 -53 -2 -71 3 -153 -24 -211 -70 -27 -22 -50 -44 -50 -49
0 -5 -18 -21 -40 -35 -46 -29 -50 -46 -16 -69 18 -11 26 -27 28 -53 4 -51 35
-57 72 -13 30 36 33 61 10 100 -23 37 -12 62 23 58 22 -2 29 -9 31 -31 4 -35
27 -45 52 -22 11 10 26 15 36 11 11 -4 26 2 40 15 21 19 27 21 49 11 44 -20
73 -15 97 18 22 30 94 60 143 60 12 0 37 10 56 23 29 19 35 30 41 72 16 125
26 168 46 195 30 40 31 139 2 165 -24 22 -26 58 -4 79 14 14 19 14 55 -5 45
-23 59 -18 85 33 12 22 21 28 48 28 27 0 35 4 38 23 7 35 0 46 -44 70 -23 12
-48 27 -57 32 -63 41 -87 55 -93 55 -4 0 -15 -11 -23 -24z"/>
<path d="M22303 11557 c-43 -49 -58 -92 -44 -123 20 -46 60 -40 61 9 0 9 11
40 25 69 14 28 25 58 25 65 0 24 -38 13 -67 -20z"/>
<path d="M9930 11458 c-25 -5 -59 -11 -76 -14 -43 -8 -93 -49 -77 -64 9 -9 23
-6 61 15 l49 27 121 -36 c123 -36 206 -80 214 -114 4 -16 17 -18 91 -20 51 -1
89 2 92 9 9 14 -14 39 -35 39 -10 0 -23 6 -29 14 -6 8 -32 19 -56 25 -24 6
-60 25 -79 41 -20 18 -45 30 -62 30 -16 0 -49 14 -74 30 -47 31 -65 34 -140
18z"/>
<path d="M22286 11148 c-9 -12 -16 -35 -16 -51 0 -15 -7 -42 -16 -59 -17 -33
-12 -72 12 -99 8 -9 19 -30 23 -45 6 -25 14 -30 55 -36 50 -7 148 -51 169 -76
6 -8 11 -36 10 -61 -2 -65 27 -95 47 -48 6 12 15 29 22 38 19 28 -7 76 -45 83
-23 5 -39 18 -56 46 -19 30 -34 41 -58 46 -43 8 -83 40 -83 67 0 11 12 38 26
59 23 32 25 44 20 83 -11 70 -76 101 -110 53z"/>
<path d="M22576 10595 c-21 -31 -64 -54 -102 -53 -35 1 -89 -25 -98 -47 -18
-47 0 -56 58 -28 40 19 68 6 59 -26 -6 -22 43 -71 70 -71 9 0 22 11 27 25 6
15 17 25 29 25 27 0 34 30 26 103 -6 56 -26 97 -45 97 -4 0 -15 -11 -24 -25z"/>
<path d="M19811 10573 c-18 -64 -14 -137 10 -167 25 -32 39 -33 73 -1 36 33
34 76 -7 145 -41 69 -62 75 -76 23z"/>
<path d="M21989 10382 c-111 -114 -180 -171 -219 -182 -22 -6 -47 -22 -58 -37
-16 -22 -26 -26 -66 -26 -54 1 -76 -20 -76 -75 0 -32 40 -125 60 -137 5 -3 14
-24 20 -45 8 -31 17 -41 38 -46 15 -3 43 -11 62 -18 23 -9 45 -10 65 -5 38 11
77 3 109 -22 20 -16 32 -18 58 -11 37 9 57 41 66 106 3 22 16 54 28 69 13 16
24 41 24 56 0 26 26 65 49 72 6 3 1 25 -13 54 -44 92 -44 96 16 155 l53 52
-24 19 c-13 10 -29 19 -36 19 -8 0 -23 14 -35 30 -31 44 -57 38 -121 -28z"/>
<path d="M22520 10095 c-19 -10 -49 -11 -120 -5 -82 6 -98 5 -120 -10 -42 -29
-70 -79 -70 -126 0 -23 -8 -56 -17 -73 -17 -30 -17 -32 5 -71 17 -30 21 -48
16 -78 -5 -30 -2 -40 9 -45 28 -11 51 18 50 62 -1 22 2 43 7 46 15 9 40 -7 56
-36 8 -16 21 -29 29 -29 7 0 20 -9 29 -21 18 -26 50 -21 54 8 2 12 -8 39 -22
60 -14 21 -26 42 -26 48 0 5 -9 21 -20 35 -29 37 -25 53 25 79 39 21 45 28 45
56 0 29 4 33 35 39 31 6 75 45 75 67 0 11 -9 10 -40 -6z m-105 -89 c0 -26 -4
-30 -54 -43 -49 -12 -56 -12 -73 3 -18 17 -24 54 -11 68 4 4 37 6 73 4 64 -3
65 -3 65 -32z"/>
<path d="M22943 9984 c-24 -9 -43 -21 -43 -28 0 -8 20 -21 45 -31 45 -17 64
-37 62 -65 -1 -24 23 -78 38 -84 7 -2 27 0 43 6 25 10 35 8 66 -10 21 -12 44
-22 52 -22 30 0 134 -61 158 -93 33 -43 33 -57 -4 -92 -53 -51 -36 -73 40 -54
49 12 50 12 94 -19 37 -27 53 -32 100 -32 54 0 58 2 76 33 26 44 61 60 116 51
38 -5 47 -12 68 -49 36 -60 80 -95 122 -95 18 0 52 -7 74 -16 39 -16 70 -14
70 5 0 5 -31 30 -70 56 -38 26 -70 50 -70 53 0 4 -16 24 -35 46 -38 41 -44 66
-20 86 20 17 12 26 -44 51 -27 11 -53 30 -59 43 -14 32 -95 83 -144 91 -22 4
-64 18 -93 30 -29 13 -70 27 -91 31 -21 4 -57 15 -79 25 -22 10 -53 19 -69 19
-38 0 -113 -36 -127 -61 -12 -23 -52 -25 -72 -4 -9 8 -18 33 -22 55 -10 61
-33 82 -91 86 -28 2 -67 -3 -91 -12z"/>
<path d="M17911 9243 c-11 -21 -29 -44 -40 -51 -12 -7 -21 -20 -21 -30 0 -29
-91 -112 -124 -112 -36 0 -80 -32 -96 -70 -12 -29 -10 -100 6 -177 5 -26 0
-42 -25 -81 -35 -55 -38 -85 -17 -166 20 -74 30 -90 68 -109 28 -14 36 -14 66
-1 19 8 42 14 52 14 26 0 50 33 50 71 0 19 26 95 56 169 55 131 83 237 84 311
0 28 5 38 20 42 15 4 20 14 20 36 0 30 -32 161 -45 181 -13 20 -35 9 -54 -27z"/>
<path d="M23757 9263 c-3 -10 -16 -45 -28 -78 -12 -33 -23 -81 -25 -107 -4
-53 -26 -112 -51 -140 -21 -23 -58 -23 -91 1 -15 10 -43 25 -62 33 -19 8 -41
22 -49 31 -7 10 -21 17 -30 17 -10 0 -30 13 -45 29 -26 27 -27 32 -17 64 7 19
27 49 46 66 19 17 35 36 35 41 0 14 -35 21 -98 21 -31 0 -78 5 -104 11 -41 10
-50 9 -66 -5 -10 -9 -30 -17 -44 -17 -46 0 -140 -82 -152 -132 -6 -25 -9 -26
-44 -21 -20 3 -47 16 -60 29 -27 28 -56 30 -100 8 -39 -19 -91 -70 -102 -98
-6 -15 -23 -26 -61 -35 -59 -15 -89 -35 -89 -60 0 -9 -19 -36 -41 -59 -36 -38
-49 -45 -100 -52 -32 -5 -63 -11 -68 -15 -6 -3 -51 -15 -101 -26 -50 -10 -108
-30 -128 -43 -20 -12 -50 -27 -67 -33 -23 -7 -31 -16 -33 -39 -2 -16 -10 -43
-18 -61 -17 -37 -18 -57 -3 -85 9 -16 7 -24 -10 -42 -20 -21 -21 -25 -6 -59 8
-20 15 -52 15 -71 0 -19 5 -38 10 -41 6 -3 10 -31 10 -61 0 -30 5 -75 11 -99
14 -54 -2 -108 -37 -132 -34 -22 -28 -52 16 -81 28 -19 44 -23 85 -19 54 5
106 22 143 48 18 13 42 16 125 12 102 -4 102 -4 134 26 18 16 49 35 70 41 21
7 43 16 48 20 6 4 47 10 93 13 45 4 91 11 101 17 28 15 155 12 193 -4 18 -8
52 -22 76 -32 24 -10 42 -24 42 -33 0 -9 7 -25 15 -35 8 -11 15 -32 15 -47 0
-36 9 -59 24 -59 6 0 34 23 61 50 75 76 100 64 46 -22 -33 -52 -30 -67 7 -38
37 30 55 26 47 -10 -5 -21 -2 -35 9 -46 10 -9 16 -33 16 -62 0 -60 46 -138 87
-148 16 -4 43 -16 62 -27 l34 -20 42 22 c44 23 71 20 80 -9 3 -9 14 -25 25
-35 17 -15 22 -16 36 -4 9 7 24 18 34 24 9 5 30 19 45 29 15 11 50 21 81 24
54 4 54 5 79 54 14 27 25 55 25 62 0 7 18 34 40 59 22 25 40 52 40 60 0 8 7
20 15 27 8 7 15 21 15 31 0 11 22 33 58 56 35 24 58 47 60 60 2 12 14 29 28
37 19 13 24 25 24 57 0 30 8 50 32 79 30 38 31 44 33 142 3 120 -13 169 -71
213 -30 23 -34 31 -29 56 6 27 3 31 -30 44 -20 9 -38 23 -41 33 -25 79 -47
108 -107 142 l-62 36 0 49 c-1 28 -9 65 -18 82 -10 19 -15 43 -12 56 8 31 -27
75 -63 79 -24 3 -28 8 -32 49 -6 51 -38 119 -56 119 -6 0 -14 -8 -17 -17z"/>
<path d="M25540 7833 c0 -10 21 -76 31 -95 5 -9 17 -44 29 -77 l20 -60 -22
-57 c-17 -44 -29 -60 -50 -68 -37 -14 -36 -41 2 -73 37 -30 37 -40 4 -77 -24
-25 -31 -27 -73 -21 -25 4 -50 11 -55 16 -19 17 -37 9 -51 -24 -8 -19 -29 -44
-48 -57 -18 -13 -39 -35 -46 -49 -13 -28 -87 -85 -166 -127 -71 -37 -175 -149
-175 -188 0 -8 9 -18 20 -21 24 -8 26 -28 5 -45 -17 -14 -20 -40 -5 -40 5 0
17 11 26 25 12 19 25 25 53 25 54 0 128 58 181 142 35 55 50 70 91 88 30 12
53 30 58 43 5 13 24 39 42 58 19 19 48 52 64 72 24 29 37 37 65 37 48 0 155
97 171 153 7 28 19 42 47 56 43 23 65 54 57 82 -7 20 -12 22 -59 23 -16 1 -32
8 -36 16 -22 47 -30 55 -56 60 -28 5 -29 7 -29 64 0 55 -2 60 -40 92 -39 33
-55 41 -55 27z"/>
<path d="M23519 7383 c-1 -5 -3 -50 -4 -101 -3 -84 -1 -94 18 -107 18 -13 24
-12 52 5 18 11 40 20 48 20 9 0 22 10 28 23 6 12 20 31 29 42 23 25 40 88 30
105 -6 10 -27 11 -83 6 -49 -4 -78 -3 -82 4 -7 12 -34 14 -36 3z"/>
</g>
</svg>
